<svg width="99" height="99" viewBox="0 0 99 99" fill="none" xmlns="http://www.w3.org/2000/svg">
<rect width="99" height="99" rx="8" fill="#1B2F30"/>
<rect x="17" y="17" width="65" height="65" rx="32.5" fill="#435E4D"/>
<rect x="25" y="25" width="49" height="49" rx="24.5" fill="#F5F7FB"/>
<path d="M49.5 42.75C53.625 42.75 57 45.435 57 48.75C57 52.065 53.625 54.75 49.5 54.75C48.57 54.75 47.6775 54.615 46.8525 54.375C44.6625 56.25 42 56.25 42 56.25C43.7475 54.5025 44.025 53.325 44.0625 52.875C42.7875 51.8025 42 50.3475 42 48.75C42 45.435 45.375 42.75 49.5 42.75ZM53.25 49.5V48H51.75V49.5H53.25ZM50.25 49.5V48H48.75V49.5H50.25ZM47.25 49.5V48H45.75V49.5H47.25Z" fill="#435E4D"/>
</svg>
