<svg width="15" height="15" viewBox="0 0 15 15" fill="none" xmlns="http://www.w3.org/2000/svg">
<path d="M12.75 0.75C13.1478 0.75 13.5294 0.908035 13.8107 1.18934C14.092 1.47064 14.25 1.85218 14.25 2.25V12.75C14.25 13.1478 14.092 13.5294 13.8107 13.8107C13.5294 14.092 13.1478 14.25 12.75 14.25H2.25C1.85218 14.25 1.47064 14.092 1.18934 13.8107C0.908035 13.5294 0.75 13.1478 0.75 12.75V2.25C0.75 1.85218 0.908035 1.47064 1.18934 1.18934C1.47064 0.908035 1.85218 0.75 2.25 0.75H12.75ZM12.375 12.375V8.4C12.375 7.75155 12.1174 7.12965 11.6589 6.67112C11.2003 6.2126 10.5785 5.955 9.93 5.955C9.2925 5.955 8.55 6.345 8.19 6.93V6.0975H6.0975V12.375H8.19V8.6775C8.19 8.1 8.655 7.6275 9.2325 7.6275C9.51098 7.6275 9.77805 7.73812 9.97496 7.93504C10.1719 8.13195 10.2825 8.39902 10.2825 8.6775V12.375H12.375ZM3.66 4.92C3.99417 4.92 4.31466 4.78725 4.55095 4.55095C4.78725 4.31466 4.92 3.99417 4.92 3.66C4.92 2.9625 4.3575 2.3925 3.66 2.3925C3.32384 2.3925 3.00144 2.52604 2.76374 2.76374C2.52604 3.00144 2.3925 3.32384 2.3925 3.66C2.3925 4.3575 2.9625 4.92 3.66 4.92ZM4.7025 12.375V6.0975H2.625V12.375H4.7025Z" fill="#435E4D"/>
</svg>
