<svg width="99" height="99" viewBox="0 0 99 99" fill="none" xmlns="http://www.w3.org/2000/svg">
<rect width="99" height="99" rx="8" fill="#1B2F30"/>
<rect x="17" y="17" width="65" height="65" rx="32.5" fill="#435E4D"/>
<rect x="25" y="25" width="49" height="49" rx="24.5" fill="#F5F7FB"/>
<path d="M52.5 46.5C52.5 48.1575 51.1575 49.5 49.5 49.5C47.8425 49.5 46.5 48.1575 46.5 46.5L46.5825 45.795L44.25 44.625L49.5 42L54.75 44.625V48.375H54V45L52.4175 45.795L52.5 46.5ZM49.5 51C52.815 51 55.5 52.3425 55.5 54V55.5H43.5V54C43.5 52.3425 46.185 51 49.5 51Z" fill="#435E4D"/>
</svg>
