<svg width="17" height="14" viewBox="0 0 17 14" fill="none" xmlns="http://www.w3.org/2000/svg">
<path d="M16.345 2C15.7675 2.2625 15.145 2.435 14.5 2.5175C15.16 2.12 15.67 1.49 15.91 0.7325C15.2875 1.1075 14.5975 1.37 13.87 1.52C13.2775 0.875 12.445 0.5 11.5 0.5C9.73753 0.5 8.29753 1.94 8.29753 3.7175C8.29753 3.9725 8.32753 4.22 8.38003 4.4525C5.71003 4.3175 3.33253 3.035 1.75003 1.0925C1.47253 1.565 1.31503 2.12 1.31503 2.705C1.31503 3.8225 1.87753 4.8125 2.74753 5.375C2.21503 5.375 1.72003 5.225 1.28503 5V5.0225C1.28503 6.5825 2.39503 7.8875 3.86503 8.18C3.39307 8.30916 2.8976 8.32713 2.41753 8.2325C2.62123 8.87186 3.02018 9.43131 3.55829 9.8322C4.0964 10.2331 4.74661 10.4553 5.41753 10.4675C4.28025 11.3678 2.87053 11.8545 1.42003 11.8475C1.16503 11.8475 0.910029 11.8325 0.655029 11.8025C2.08003 12.7175 3.77503 13.25 5.59003 13.25C11.5 13.25 14.7475 8.345 14.7475 4.0925C14.7475 3.95 14.7475 3.815 14.74 3.6725C15.37 3.2225 15.91 2.6525 16.345 2Z" fill="#435E4D"/>
</svg>
