<svg width="14" height="16" viewBox="0 0 14 16" fill="none" xmlns="http://www.w3.org/2000/svg">
<path d="M4.75 7H3.25V8.5H4.75V7ZM7.75 7H6.25V8.5H7.75V7ZM10.75 7H9.25V8.5H10.75V7ZM12.25 1.75H11.5V0.25H10V1.75H4V0.25H2.5V1.75H1.75C1.35218 1.75 0.970644 1.90804 0.68934 2.18934C0.408035 2.47064 0.25 2.85218 0.25 3.25V13.75C0.25 14.1478 0.408035 14.5294 0.68934 14.8107C0.970644 15.092 1.35218 15.25 1.75 15.25H12.25C12.6478 15.25 13.0294 15.092 13.3107 14.8107C13.592 14.5294 13.75 14.1478 13.75 13.75V3.25C13.75 2.85218 13.592 2.47064 13.3107 2.18934C13.0294 1.90804 12.6478 1.75 12.25 1.75ZM12.25 13.75H1.75V5.5H12.25V13.75Z" fill="#435E4D"/>
</svg>
